<svg width="860" height="443" viewBox="0 0 860 443" fill="none" xmlns="http://www.w3.org/2000/svg">
<path d="M689.436 63.5619C691.107 63.3142 694.185 63.2512 696.008 63.2214C714.191 62.9245 723.425 65.8244 736.341 78.0902C738.059 74.3611 739.671 69.8676 741.406 65.9403C750.946 65.7946 760.63 65.8664 770.183 65.8546L770.321 136.54C770.351 150.524 771.182 173.279 768.78 186.312C767.34 194.597 764.027 202.444 759.097 209.258C733.96 244.344 674.823 241.731 642.728 218.58C643.862 216.051 645.399 213.438 646.755 211.003C649.229 206.394 652.307 200.327 655.019 196.01C658.198 197.067 663.523 199.839 666.92 201.262C677.111 205.476 688.08 207.482 699.107 207.15C709.546 206.827 718.415 204.631 725.726 196.785C734.322 187.557 734.594 177.729 734.212 165.877C725.415 175.821 717.886 182.13 704.175 184.026C689.965 186.062 675.533 182.261 664.169 173.489C626.162 144.537 637.328 70.0902 689.436 63.5619Z" fill="white"/>
<path d="M704.721 90.8112C708.66 90.4908 712.624 90.7155 716.5 91.4789C723.248 92.8771 729.19 96.0562 733.062 101.951C733.872 110.258 733.599 134.097 733.104 142.449C727.838 150.645 718.008 153.725 708.807 154.351C702.139 154.25 696.239 153.24 690.671 149.229C676.864 139.293 675.948 114.525 685.493 101.458C690.339 94.8205 696.898 91.979 704.721 90.8112Z" fill="black"/>
<path d="M774.672 267.656C775.612 267.566 778.069 267.593 779.068 267.681C794.895 269.075 801.891 270.9 812.33 282.247C813.867 278.364 815.043 275.331 816.236 271.296C825.445 270.956 836.657 271.239 845.996 271.257L845.941 341.309C845.979 362.889 848.624 387.061 835.812 405.733C822.194 425.578 801.009 431.117 778.107 430.949C756.397 430.789 739.831 427.035 721.627 414.694L727.641 404.567C729.963 400.949 732.302 396.17 734.355 392.283C747.763 400.27 759.219 403.661 774.815 403.929C785.077 404.105 795.101 402.091 802.836 394.816C810.84 387.288 810.81 377.409 811.037 367.21C801.727 377.039 795.139 382.38 780.874 384.095C726.864 390.566 704.499 324.227 734.846 286.467C745.315 273.438 758.631 269.037 774.672 267.656Z" fill="white"/>
<path d="M783.545 294.941C791.729 294.277 809.173 298.761 809.853 307.345C810.634 317.241 810.462 334.198 809.979 344.159C809.399 345.079 808.744 345.953 808.026 346.77C802.227 353.424 793.644 355.922 785.149 356.453C769.96 355.938 759.84 347.286 757.736 332.063C755.204 313.763 763.998 297.414 783.545 294.941Z" fill="black"/>
<path d="M5.55213 14.967C18.8385 15.0912 32.1255 15.1162 45.412 15.0422L45.462 89.811C68.5497 88.8977 94.9595 89.4637 118.371 89.4503C118.683 64.8724 118.367 39.6784 118.433 15.0456C131.551 15.1155 144.67 15.0898 157.789 14.9687C157.635 21.0671 157.54 27.2535 157.609 33.3509C158.181 83.6451 157.136 134.153 157.859 184.425L157.729 185.161C156.407 186.031 122.887 185.667 118.453 185.664C117.908 161.509 118.637 136.408 118.305 112.076C109.98 115.142 98.3759 117.745 89.5261 119.925L45.4414 130.806L45.4263 185.645C32.1375 185.746 18.8478 185.715 5.55952 185.551C5.05406 168.857 5.61499 149.254 5.60134 132.349L5.55213 14.967Z" fill="white"/>
<path d="M416.837 63.5598C418.487 63.3125 423.865 63.1806 425.666 63.2499C441.372 63.8559 450.202 67.567 460.864 78.5349C462.053 74.5592 463.871 69.8727 465.295 65.913L494.517 65.7904C495.193 104.994 494.576 146.276 494.567 185.63C483.448 185.877 471.409 185.735 460.264 185.629C460.18 180.55 460.02 175.472 459.785 170.397L456.942 173.249C448.674 181.774 441.367 186.411 429.505 187.82C390.554 192.45 365.393 162.299 366.611 125.03C367.625 93.9912 384.717 67.4893 416.837 63.5598Z" fill="white"/>
<path d="M432.36 91.2807C442.61 90.3602 450.941 93.7203 457.643 101.541C457.782 103.381 457.883 105.225 457.946 107.07C458.118 113.447 457.992 120.174 457.891 126.431C457.681 139.384 461.481 149.735 446.528 155.604C440.964 157.789 438.016 158.349 432.024 158.386C425.717 158.184 420.522 156.619 415.426 152.704C401.639 142.108 401.415 114.538 411.814 101.641C417.222 94.9355 423.953 92.2007 432.36 91.2807Z" fill="black"/>
<path d="M177.807 220.57C190.096 220.798 202.389 220.758 214.676 220.448C215.237 228.668 214.912 240.101 214.904 248.531C214.826 265.82 214.857 283.109 214.998 300.398C235.216 294.066 256.675 288.572 276.698 281.973L276.661 222.864L312.839 222.711C312.845 226.201 313.428 241.75 312.605 243.73C306.013 259.565 287.83 276.488 281.601 292.249L282.883 298.391C290.46 294.362 303.995 290.182 312.522 287.28C313.248 306.495 312.761 328.392 312.749 347.786L312.778 386.665L276.652 386.669L276.699 335.417C276.703 327.073 277.064 314.582 276.38 306.537C268.223 312.031 259.716 316.03 251.18 320.807C239.224 327.499 226.586 333.462 214.864 340.502C214.508 355.198 214.914 371.826 214.937 386.678C202.584 386.726 190.231 386.701 177.878 386.6C177.711 379.755 177.838 372.549 177.879 365.682C178.167 317.366 177.177 268.864 177.807 220.57Z" fill="white"/>
<path d="M387.304 267.653C402.464 266.123 421.858 271.281 434.43 280.782C459.89 300.02 462.8 341.123 443.396 365.64C431.541 380.619 416.106 386.349 397.128 388.327C378.355 388.669 362.225 385.816 347.155 373.607C322.008 353.234 320.531 311.581 341.112 287.504C353.619 272.873 368.827 269.201 387.304 267.653Z" fill="white"/>
<path d="M390.05 294.927C427.909 293.325 434.43 356.82 393.343 360.105C363.582 361.585 353.686 325.803 369.469 305.109C374.75 298.185 381.732 295.854 390.05 294.927Z" fill="black"/>
<path d="M269.588 14.8954C270.103 14.8635 270.753 14.9125 271.282 14.9329C272.169 16.1782 271.664 76.0271 271.614 83.0904C273.91 80.7771 276.033 78.2207 278.337 75.9747C288.478 66.0897 297.815 63.152 311.709 63.2007C324.145 63.2444 334.457 64.8577 343.78 73.9381C348.496 78.6402 352.042 85.5737 353.27 92.1368C355.464 103.861 354.742 116.952 354.768 128.886L354.777 185.583C342.683 185.924 329.103 185.772 316.958 185.611C316.631 162.155 317.305 138.432 316.872 114.949C316.244 101.836 312.856 92.744 298.128 92.199C267.646 91.0702 271.764 121.923 271.796 141.723L271.856 185.617C259.513 185.854 246.662 185.671 234.282 185.658L234.271 15.0503C246.034 14.8842 257.769 15.1834 269.588 14.8954Z" fill="white"/>
<path d="M522.635 267.655C528.577 267.192 539.528 268.653 545.172 270.086C557.69 273.264 568.793 280.954 575.377 292.162C581.659 302.851 583.255 314.022 582.818 326.23C582.692 329.729 582.616 333.912 581.739 337.267C555.019 337.833 526.502 336.541 500.035 337.496C501.765 343.226 502.143 345.815 506.081 350.736C518.213 365.882 544.626 363.21 560.444 356.433C563.59 355.085 571.22 349.529 573.676 349.771C574.487 350.83 574.466 352.607 574.579 354C575.444 360.2 576.347 366.394 577.288 372.583C568.923 381.445 549.594 387.232 537.618 388.025C518.713 389.471 498.565 385.88 483.599 373.451C458.941 352.972 458.685 310.854 478.82 287.145C490.758 273.085 504.801 269.052 522.635 267.655Z" fill="white"/>
<path d="M522.803 293.271C541.888 292.348 547.658 298.266 551.126 316.479C543.9 316.644 536.16 316.514 528.892 316.525C519.229 316.617 509.563 316.59 499.9 316.446C502.554 303.524 508.467 294.387 522.803 293.271Z" fill="black"/>
<path d="M578.95 63.559C581.978 63.323 585.01 63.1954 588.042 63.1765C610.201 63.1038 625.39 75.9092 626.864 98.3666C627.607 109.662 627.38 120.623 627.372 131.928L627.46 185.629C615.307 185.717 603.155 185.722 591.002 185.642C590.272 160.728 591.733 135.342 590.624 110.503C590.011 96.6303 579.95 90.3384 567.029 92.5312C559.407 93.8249 555.918 95.8031 551.269 101.843C545.235 111.574 546.835 126.074 546.852 137.29C546.931 153.407 546.927 169.526 546.839 185.643C534.938 185.708 523.038 185.707 511.133 185.64C510.772 172.12 511.057 157.568 511.053 143.941L511.058 65.8277L545.449 65.7383C545.483 71.9642 545.436 78.3678 545.785 84.566C546.713 83.4512 547.742 81.9403 548.67 80.7478C556.069 71.2122 566.97 65.0249 578.95 63.559Z" fill="white"/>
<path d="M664.132 268.046C691.784 264.742 709.261 281.571 709.466 308.729C709.529 317.328 709.55 325.982 709.542 334.588L709.525 386.657C697.301 386.712 685.077 386.699 672.853 386.618C673 372.384 673.034 358.149 672.958 343.915C672.933 334.811 672.933 325.852 672.576 316.677C672.035 302.732 664.778 295.232 650.35 296.021C643.61 296.39 638.584 299.673 634.372 304.81C627.846 314.878 629.543 329.422 629.551 341.183L629.559 386.658L593.736 386.674C593.442 369.202 593.677 351.203 593.665 333.675C593.648 312.934 593.45 291.922 593.728 271.215L628.254 271.275C628.279 276.781 628.367 281.663 628.69 287.155C630.945 285.593 634.338 281.951 636.555 279.933C645.26 272.007 652.798 269.571 664.132 268.046Z" fill="white"/>
<path d="M177.685 65.0459L214.824 65.1047C215.39 77.7661 214.883 95.1783 214.893 108.165L214.824 185.636C202.677 185.872 189.864 185.665 177.665 185.665L177.685 65.0459Z" fill="white"/>
<path d="M192.763 10.6752C203.842 8.45382 214.613 15.6696 216.773 26.7599C218.933 37.8502 211.657 48.5809 200.555 50.6792C189.539 52.7615 178.91 45.5551 176.767 34.5514C174.624 23.5476 181.771 12.8792 192.763 10.6752Z" fill="white"/>
<path d="M351.512 216.262C360.456 216.592 368.966 216.246 377.907 216.02C372.748 222.913 365.364 231.426 359.97 238.407C355.951 243.608 344.373 259.682 340.494 263.37C336.612 264.322 319.649 264.149 314.354 264.305C315.065 263.174 315.838 262.269 316.638 261.216C326.257 248.562 335.744 235.857 345.684 223.449C347.669 220.972 349.26 218.548 351.512 216.262Z" fill="#57C186"/>
<path d="M413.076 213.086L425.024 212.939C418.139 220.27 412.295 228.201 406.004 236.021C402.926 239.848 399.593 244.403 396.089 247.77L384.781 247.709C380.175 247.684 377.074 247.86 372.514 248.369C373.843 246.732 375.421 244.964 376.841 243.393C385.195 234.158 392.736 222.136 401.443 213.393L413.076 213.086Z" fill="#57C186"/>
</svg>
