<svg width="1254" height="1254" viewBox="0 0 1254 1254" fill="none" xmlns="http://www.w3.org/2000/svg">
<path d="M322.072 322.129C367.155 321.909 412.381 322.507 457.448 321.997L457.349 500.601C457.349 530.176 457.663 560.23 457.278 589.757C478.246 583.949 500.297 578.843 521.485 573.371L686.26 531.354C686.719 511.123 686.395 489.803 686.388 469.506L686.401 322.227C730.395 321.556 775.944 322.155 820.048 322.14C820.685 344.29 819.742 366.813 820.159 389.001C820.293 396.099 820.299 403.407 820.079 410.492C816.019 416.992 809.468 425.786 804.955 432.167L775.418 473.817C754.06 504.014 731.926 536.857 709.962 566.243C709.662 575.687 710.415 587.226 709.736 596.228C746.015 584.23 784.094 569.839 820.085 558.5C820.624 584.948 820.122 612.408 820.189 638.982L820.226 798.598L820.171 879.14C820.159 889.195 820.93 908.819 819.859 918.04C808.078 918.554 795.134 917.893 783.237 918.046C751.317 918.469 718.241 917.287 686.425 918.365C685.446 885.564 686.297 848.691 686.303 815.516L686.37 621.838C673.64 627.74 659.6 635.229 647.029 641.615L583.873 673.639C542.196 694.867 499.353 715.802 457.984 737.41L457.939 856.155C457.956 876.226 458.388 898.183 457.779 918.108C445.005 918.408 430.846 918.046 417.933 918.034L322.221 918.187C321.274 895.66 322 868.695 322.003 845.862L322.016 711.253L322.072 322.129Z" fill="#FEFEFE"/>
<path d="M929.858 322.275C954.657 321.642 982.308 322.17 1007.22 322.27C989.166 346.161 970.944 369.925 952.556 393.559C934.732 416.905 915.861 442.305 897.351 464.974C894.865 467.419 874.971 466.496 870.453 466.486L822.57 466.496C825.185 461.715 834.167 450.22 837.823 445.3L872.736 398.698L910.516 347.42C914.336 342.22 925.982 325.753 929.858 322.275Z" fill="#53BF83"/>
<path d="M1055.85 322.311C1080.16 321.65 1105.35 322.876 1129.51 322.128C1104.07 358.478 1072.99 397.22 1046.18 433.171C1042.09 434.182 1023.25 433.793 1018.08 433.764C1003.54 433.804 988.994 433.705 974.445 433.466C989.686 410.395 1010.52 383.87 1027.13 361.088L1044.25 337.318C1047.11 333.353 1052.52 325.496 1055.85 322.311Z" fill="#53BF83"/>
</svg>
